# xmcd
#
# Track frame offsets: 
#        150
#        15742
#        26230
#        35135
#        42636
#        54107
#        66826
#        75107
#        84738
#        100980
#
# Disc length: 1538 seconds
#
# Revision: 0
# Processed by: cddbd v1.5.2PL0 Copyright (c) Steve Scherf et al.
# Submitted via: ExactAudioCopy v0.95b4
#
DISCID=7b06000a
DTITLE=Willie Nelson - Willie Nelson Disc 1
DYEAR=2005
DGENRE=Classic Country
TTITLE0=Mamas Don't Let Your Babies Grow Up To Be Cowboys
TTITLE1=Blue Eyes Crying In The Rain
TTITLE2=Why Are You Picking On Me
TTITLE3=I Gotta Get Drunk
TTITLE4=Last Letter (live)
TTITLE5=I Just Don't Understand
TTITLE6=You Wouldn't Cross The Street To Say Goodbye
TTITLE7=Let's Pretend
TTITLE8=I Can't Help It If I'm Still In Love With You
TTITLE9=That's The Way Love Goes
EXTD=
EXTT0=
EXTT1=
EXTT2=
EXTT3=
EXTT4=
EXTT5=
EXTT6=
EXTT7=
EXTT8=
EXTT9=
PLAYORDER=
